HIERARCHY
ROOT Hips
{
  OFFSET -5.087566 -161.629915 0.332252
  CHANNELS 6 Xposition Yposition Zposition Xrotation Yrotation Zrotation
  JOINT Spine
  {
    OFFSET 0.000000 0.000000 0.000000
    CHANNELS 3 Xrotation Yrotation Zrotation
    JOINT Chest
    {
      OFFSET 1.394183 72.460234 -49.803530
      CHANNELS 3 Xrotation Yrotation Zrotation
      JOINT Neck
      {
        OFFSET 1.436431 74.655998 -51.312727
        CHANNELS 3 Xrotation Yrotation Zrotation
        JOINT Head
        {
          OFFSET -0.651283 74.212775 -212.609220
          CHANNELS 3 Xrotation Yrotation Zrotation
          End Site
          {
            OFFSET 0.000000 0.000000 0.000000
          }
        }
      }
      JOINT LeftShoulder
      {
        OFFSET 59.578101 73.052767 -53.779869
        CHANNELS 3 Xrotation Yrotation Zrotation
        JOINT LeftElbow
        {
          OFFSET 0.000000 0.000000 0.000000
          CHANNELS 3 Xrotation Yrotation Zrotation
          JOINT LeftWrist
          {
            OFFSET 0.000000 0.000000 0.000000
            CHANNELS 3 Xrotation Yrotation Zrotation
            End Site
            {
              OFFSET 0.000000 0.000000 0.000000
            }
          }
        }
      }
      JOINT RightShoulder
      {
        OFFSET -56.705239 76.259230 -48.845586
        CHANNELS 3 Xrotation Yrotation Zrotation
        JOINT RightElbow
        {
          OFFSET 0.000000 0.000000 0.000000
          CHANNELS 3 Xrotation Yrotation Zrotation
          JOINT RightWrist
          {
            OFFSET 0.000000 0.000000 0.000000
            CHANNELS 3 Xrotation Yrotation Zrotation
            End Site
            {
              OFFSET 0.000000 0.000000 0.000000
            }
          }
        }
      }
    }
  }
  JOINT LeftHip
  {
    OFFSET 0.000000 0.000000 0.000000
    CHANNELS 3 Xrotation Yrotation Zrotation
    JOINT LeftKnee
    {
      OFFSET 0.000000 0.000000 0.000000
      CHANNELS 3 Xrotation Yrotation Zrotation
      JOINT LeftAnkle
      {
        OFFSET 0.000000 0.000000 0.000000
        CHANNELS 3 Xrotation Yrotation Zrotation
        End Site
        {
          OFFSET 0.000000 0.000000 0.000000
        }
      }
    }
  }
  JOINT RightHip
  {
    OFFSET 0.000000 0.000000 0.000000
    CHANNELS 3 Xrotation Yrotation Zrotation
    JOINT RightKnee
    {
      OFFSET 0.000000 0.000000 0.000000
      CHANNELS 3 Xrotation Yrotation Zrotation
      JOINT RightAnkle
      {
        OFFSET 0.000000 0.000000 0.000000
        CHANNELS 3 Xrotation Yrotation Zrotation
        End Site
        {
          OFFSET 0.000000 0.000000 0.000000
        }
      }
    }
  }
}
MOTION
Frames: 15
Frame Time: 0.041667
63.746605 -192.303057 0.090298 0.000000 0.000000 0.000000 0.000000 0.000000 0.000000 14.828822 7.913409 15.871832 14.828822 7.913409 15.871832 -3.689367 9.340757 2.944479 24.211701 -6.647357 25.580862 0.000000 0.000000 0.000000 0.000000 0.000000 0.000000 -11.816342 9.224594 25.101090 0.000000 0.000000 0.000000 0.000000 0.000000 0.000000 0.000000 0.000000 0.000000 0.000000 0.000000 0.000000 0.000000 0.000000 0.000000 0.000000 0.000000 0.000000 0.000000 0.000000 0.000000 0.000000 0.000000 0.000000
64.697800 -190.206943 0.091770 0.000000 0.000000 0.000000 0.000000 0.000000 0.000000 2.219600 8.509657 12.914565 2.219600 8.509657 12.914565 -4.152310 9.752168 3.032349 15.530080 2.783591 25.101429 0.000000 0.000000 0.000000 0.000000 0.000000 0.000000 -18.399469 5.416462 23.961504 0.000000 0.000000 0.000000 0.000000 0.000000 0.000000 0.000000 0.000000 0.000000 0.000000 0.000000 0.000000 0.000000 0.000000 0.000000 0.000000 0.000000 0.000000 0.000000 0.000000 0.000000 0.000000 0.000000 0.000000
66.050758 -187.078607 0.087910 0.000000 0.000000 0.000000 0.000000 0.000000 0.000000 1.395279 8.715434 12.997558 1.395279 8.715434 12.997558 -2.777891 9.177620 2.970807 20.782005 -2.834352 25.693910 0.000000 0.000000 0.000000 0.000000 0.000000 0.000000 -26.118494 -0.146808 22.203689 0.000000 0.000000 0.000000 0.000000 0.000000 0.000000 0.000000 0.000000 0.000000 0.000000 0.000000 0.000000 0.000000 0.000000 0.000000 0.000000 0.000000 0.000000 0.000000 0.000000 0.000000 0.000000 0.000000 0.000000
65.595703 -186.758630 0.085354 0.000000 0.000000 0.000000 0.000000 0.000000 0.000000 3.048135 8.166534 12.618702 3.048135 8.166534 12.618702 -3.024070 8.810362 2.831638 19.193775 -1.981322 24.179798 0.000000 0.000000 0.000000 0.000000 0.000000 0.000000 -22.113874 2.701274 22.922849 0.000000 0.000000 0.000000 0.000000 0.000000 0.000000 0.000000 0.000000 0.000000 0.000000 0.000000 0.000000 0.000000 0.000000 0.000000 0.000000 0.000000 0.000000 0.000000 0.000000 0.000000 0.000000 0.000000 0.000000
65.589828 -181.093612 0.089033 0.000000 0.000000 0.000000 0.000000 0.000000 0.000000 -9.334744 8.022896 9.590635 -9.334744 8.022896 9.590635 -2.057004 8.808269 2.910336 8.533022 9.413039 22.914450 0.000000 0.000000 0.000000 0.000000 0.000000 0.000000 -27.898390 -0.299271 23.154986 0.000000 0.000000 0.000000 0.000000 0.000000 0.000000 0.000000 0.000000 0.000000 0.000000 0.000000 0.000000 0.000000 0.000000 0.000000 0.000000 0.000000 0.000000 0.000000 0.000000 0.000000 0.000000 0.000000 0.000000
64.274597 -173.549008 0.088278 0.000000 0.000000 0.000000 0.000000 0.000000 0.000000 -15.029822 7.718842 8.198597 -15.029822 7.718842 8.198597 -2.136997 8.375962 2.761062 2.344497 14.755752 20.446639 0.000000 0.000000 0.000000 0.000000 0.000000 0.000000 -29.371946 -2.001911 22.285545 0.000000 0.000000 0.000000 0.000000 0.000000 0.000000 0.000000 0.000000 0.000000 0.000000 0.000000 0.000000 0.000000 0.000000 0.000000 0.000000 0.000000 0.000000 0.000000 0.000000 0.000000 0.000000 0.000000 0.000000
60.682526 -165.249825 0.119070 0.000000 0.000000 0.000000 0.000000 0.000000 0.000000 -17.972224 6.889352 6.841825 -17.972224 6.889352 6.841825 -0.864166 9.012402 3.078782 9.242349 8.713827 23.102745 0.000000 0.000000 0.000000 0.000000 0.000000 0.000000 -38.236988 -12.717471 18.165740 0.000000 0.000000 0.000000 0.000000 0.000000 0.000000 0.000000 0.000000 0.000000 0.000000 0.000000 0.000000 0.000000 0.000000 0.000000 0.000000 0.000000 0.000000 0.000000 0.000000 0.000000 0.000000 0.000000 0.000000
61.393356 -159.177217 0.109397 0.000000 0.000000 0.000000 0.000000 0.000000 0.000000 -20.512299 5.887535 5.472885 -20.512299 5.887535 5.472885 -0.267013 11.337099 3.941010 -0.332691 14.951615 17.281298 0.000000 0.000000 0.000000 0.000000 0.000000 0.000000 -34.177804 -10.587351 17.244608 0.000000 0.000000 0.000000 0.000000 0.000000 0.000000 0.000000 0.000000 0.000000 0.000000 0.000000 0.000000 0.000000 0.000000 0.000000 0.000000 0.000000 0.000000 0.000000 0.000000 0.000000 0.000000 0.000000 0.000000
62.896461 -151.713016 0.107517 0.000000 0.000000 0.000000 0.000000 0.000000 0.000000 -23.660867 5.422531 4.657664 -23.660867 5.422531 4.657664 -0.276012 11.756501 4.086697 5.655021 10.825900 20.545723 0.000000 0.000000 0.000000 0.000000 0.000000 0.000000 -41.500963 -17.132658 16.857077 0.000000 0.000000 0.000000 0.000000 0.000000 0.000000 0.000000 0.000000 0.000000 0.000000 0.000000 0.000000 0.000000 0.000000 0.000000 0.000000 0.000000 0.000000 0.000000 0.000000 0.000000 0.000000 0.000000 0.000000
69.254112 -147.405989 0.122499 0.000000 0.000000 0.000000 0.000000 0.000000 0.000000 -22.011608 5.656724 5.066878 -22.011608 5.656724 5.066878 3.929590 13.076213 5.082110 9.808331 6.952539 21.764990 0.000000 0.000000 0.000000 0.000000 0.000000 0.000000 -40.653464 -17.696620 15.837464 0.000000 0.000000 0.000000 0.000000 0.000000 0.000000 0.000000 0.000000 0.000000 0.000000 0.000000 0.000000 0.000000 0.000000 0.000000 0.000000 0.000000 0.000000 0.000000 0.000000 0.000000 0.000000 0.000000 0.000000
76.009865 -141.477449 0.116277 0.000000 0.000000 0.000000 0.000000 0.000000 0.000000 -20.247561 6.512070 6.136598 -20.247561 6.512070 6.136598 3.921328 14.104847 5.485190 13.210506 5.216323 24.684596 0.000000 0.000000 0.000000 0.000000 0.000000 0.000000 -41.198832 -17.237285 16.569372 0.000000 0.000000 0.000000 0.000000 0.000000 0.000000 0.000000 0.000000 0.000000 0.000000 0.000000 0.000000 0.000000 0.000000 0.000000 0.000000 0.000000 0.000000 0.000000 0.000000 0.000000 0.000000 0.000000 0.000000
83.227272 -136.091101 0.096056 0.000000 0.000000 0.000000 0.000000 0.000000 0.000000 -20.269301 6.243083 5.861838 -20.269301 6.243083 5.861838 2.380426 15.744421 5.892507 6.344509 11.007887 21.692916 0.000000 0.000000 0.000000 0.000000 0.000000 0.000000 -38.702755 -14.351168 17.141267 0.000000 0.000000 0.000000 0.000000 0.000000 0.000000 0.000000 0.000000 0.000000 0.000000 0.000000 0.000000 0.000000 0.000000 0.000000 0.000000 0.000000 0.000000 0.000000 0.000000 0.000000 0.000000 0.000000 0.000000
87.545319 -130.590255 0.129416 0.000000 0.000000 0.000000 0.000000 0.000000 0.000000 -11.635196 7.133417 8.106070 -11.635196 7.133417 8.106070 0.689966 14.598598 5.219173 8.442133 8.896807 22.171739 0.000000 0.000000 0.000000 0.000000 0.000000 0.000000 -30.441863 -5.777486 19.194192 0.000000 0.000000 0.000000 0.000000 0.000000 0.000000 0.000000 0.000000 0.000000 0.000000 0.000000 0.000000 0.000000 0.000000 0.000000 0.000000 0.000000 0.000000 0.000000 0.000000 0.000000 0.000000 0.000000 0.000000
90.661011 -125.421896 0.101912 0.000000 0.000000 0.000000 0.000000 0.000000 0.000000 -5.105669 7.054799 9.186416 -5.105669 7.054799 9.186416 3.464634 15.631518 6.016054 16.686268 0.160389 23.182710 0.000000 0.000000 0.000000 0.000000 0.000000 0.000000 -29.382598 -5.678412 18.579505 0.000000 0.000000 0.000000 0.000000 0.000000 0.000000 0.000000 0.000000 0.000000 0.000000 0.000000 0.000000 0.000000 0.000000 0.000000 0.000000 0.000000 0.000000 0.000000 0.000000 0.000000 0.000000 0.000000 0.000000
95.468597 -121.454115 0.068607 0.000000 0.000000 0.000000 0.000000 0.000000 0.000000 3.526089 6.830469 10.689914 3.526089 6.830469 10.689914 7.844918 16.662536 7.149324 28.225888 -12.135402 22.470559 0.000000 0.000000 0.000000 0.000000 0.000000 0.000000 -29.076319 -6.818524 17.243450 0.000000 0.000000 0.000000 0.000000 0.000000 0.000000 0.000000 0.000000 0.000000 0.000000 0.000000 0.000000 0.000000 0.000000 0.000000 0.000000 0.000000 0.000000 0.000000 0.000000 0.000000 0.000000 0.000000 0.000000
